<?xml version="1.0" encoding="UTF-8" standalone="no"?>
<!-- Created with Inkscape (http://www.inkscape.org/) -->

<svg
   width="60"
   height="60"
   viewBox="0 0 15.874999 15.875"
   version="1.1"
   id="svg1559"
   inkscape:version="1.2.1 (9c6d41e410, 2022-07-14, custom)"
   sodipodi:docname="favicon.svg"
   inkscape:export-filename="favicon.png"
   inkscape:export-xdpi="96"
   inkscape:export-ydpi="96"
   xmlns:inkscape="http://www.inkscape.org/namespaces/inkscape"
   xmlns:sodipodi="http://sodipodi.sourceforge.net/DTD/sodipodi-0.dtd"
   xmlns:xlink="http://www.w3.org/1999/xlink"
   xmlns="http://www.w3.org/2000/svg"
   xmlns:svg="http://www.w3.org/2000/svg">
  <sodipodi:namedview
     id="namedview1561"
     pagecolor="#ffffff"
     bordercolor="#666666"
     borderopacity="1.0"
     inkscape:showpageshadow="2"
     inkscape:pageopacity="0.0"
     inkscape:pagecheckerboard="0"
     inkscape:deskcolor="#d1d1d1"
     inkscape:document-units="px"
     showgrid="false"
     inkscape:zoom="8.8670931"
     inkscape:cx="25.543884"
     inkscape:cy="31.746593"
     inkscape:window-width="1920"
     inkscape:window-height="935"
     inkscape:window-x="0"
     inkscape:window-y="32"
     inkscape:window-maximized="1"
     inkscape:current-layer="layer1" />
  <defs
     id="defs1556">
    <linearGradient
       inkscape:collect="always"
       xlink:href="#linearGradient9760"
       id="linearGradient9762"
       x1="2762.3577"
       y1="-162.96884"
       x2="3015.3257"
       y2="-417.54828"
       gradientUnits="userSpaceOnUse"
       gradientTransform="matrix(0.26458333,0,0,0.26458333,-688.58424,137.03477)" />
    <linearGradient
       inkscape:collect="always"
       id="linearGradient9760">
      <stop
         style="stop-color:#4f6054;stop-opacity:1;"
         offset="0.28742799"
         id="stop9756" />
      <stop
         style="stop-color:#bdb285;stop-opacity:1;"
         offset="1"
         id="stop9758" />
    </linearGradient>
    <linearGradient
       inkscape:collect="always"
       xlink:href="#linearGradient9064"
       id="linearGradient9066"
       x1="2552.7812"
       y1="-410.3064"
       x2="2856.2649"
       y2="-93.530403"
       gradientUnits="userSpaceOnUse"
       gradientTransform="matrix(0.26458333,0,0,0.26458333,-688.58424,137.03477)" />
    <linearGradient
       inkscape:collect="always"
       id="linearGradient9064">
      <stop
         style="stop-color:#bdb285;stop-opacity:1;"
         offset="0.40395328"
         id="stop9060" />
      <stop
         style="stop-color:#4f6054;stop-opacity:1;"
         offset="0.9802379"
         id="stop9062" />
    </linearGradient>
    <linearGradient
       inkscape:collect="always"
       xlink:href="#linearGradient12085"
       id="linearGradient12087"
       x1="861.86823"
       y1="277.92374"
       x2="1828.9174"
       y2="270.13013"
       gradientUnits="userSpaceOnUse"
       gradientTransform="matrix(0.35277776,0,0,-0.35277776,-366.02403,222.98333)" />
    <linearGradient
       inkscape:collect="always"
       id="linearGradient12085">
      <stop
         style="stop-color:#bdb285;stop-opacity:1;"
         offset="0"
         id="stop12081" />
      <stop
         style="stop-color:#4f6054;stop-opacity:1;"
         offset="1"
         id="stop12083" />
    </linearGradient>
    <linearGradient
       inkscape:collect="always"
       xlink:href="#linearGradient12877"
       id="linearGradient12879"
       x1="1338.6703"
       y1="542.68964"
       x2="1697.4457"
       y2="399.33051"
       gradientUnits="userSpaceOnUse"
       gradientTransform="matrix(0.35277776,0,0,-0.35277776,-366.02403,222.98333)" />
    <linearGradient
       inkscape:collect="always"
       id="linearGradient12877">
      <stop
         style="stop-color:#bdb285;stop-opacity:1;"
         offset="0.37726411"
         id="stop12873" />
      <stop
         style="stop-color:#4f6054;stop-opacity:1;"
         offset="1"
         id="stop12875" />
    </linearGradient>
    <linearGradient
       inkscape:collect="always"
       xlink:href="#linearGradient12085"
       id="linearGradient14183"
       x1="1386.3981"
       y1="258.56378"
       x2="1661.0793"
       y2="258.56378"
       gradientUnits="userSpaceOnUse"
       gradientTransform="matrix(0.35277776,0,0,-0.35277776,-366.02403,222.98333)" />
    <linearGradient
       inkscape:collect="always"
       xlink:href="#linearGradient12085"
       id="linearGradient15229"
       x1="1325.3784"
       y1="208.10371"
       x2="1614.575"
       y2="208.10371"
       gradientUnits="userSpaceOnUse"
       gradientTransform="matrix(0.35277776,0,0,-0.35277776,-366.02403,222.98333)" />
  </defs>
  <g
     inkscape:label="Layer 1"
     inkscape:groupmode="layer"
     id="layer1">
    <g
       id="g4935"
       transform="matrix(0.04675154,0,0,0.07177417,2.9692509,0.79606127)">
      <path
         style="fill:url(#linearGradient9762);fill-opacity:1;stroke:#000000;stroke-width:0;stroke-linecap:butt;stroke-linejoin:miter;stroke-dasharray:none;stroke-opacity:1"
         d="m 112.66455,25.761195 -33.540859,0.261212 c -5.964264,0.666454 -11.06043,3.261842 -15.817268,6.621674 -7.031514,6.602937 -11.736493,15.939931 -17.951926,24.029628 l -3.54367,5.025393 23.479124,34.233288 z"
         id="path9754"
         sodipodi:nodetypes="ccccccc" />
      <path
         style="fill:url(#linearGradient9066);fill-opacity:1;stroke:#000000;stroke-width:0;stroke-linecap:butt;stroke-linejoin:miter;stroke-dasharray:none;stroke-opacity:1"
         d="m -13.799139,25.777861 -0.05382,24.030749 c 0.375417,6.405195 1.469443,12.561324 4.5067272,18.043901 2.623132,6.08335 6.3843428,9.890288 11.3332152,15.445313 L 26.859249,110.17201 c 15.279635,-6.15468 18.889557,-7.16494 38.431814,-14.242613 L 26.719126,38.388636 26.750558,25.811704 Z"
         id="path9058"
         sodipodi:nodetypes="ccccccccc" />
      <path
         style="fill:#4f6054;fill-opacity:1;stroke:#000000;stroke-width:0.0529167;stroke-linecap:butt;stroke-linejoin:miter;stroke-dasharray:none;stroke-opacity:1"
         d="m 22.816389,111.77826 -36.291096,17.95041 -0.203544,-17.34686 -0.01508,-12.06383 c 2.263458,-6.695807 7.1229537,-8.011212 12.4422693,-6.451697 10.5788353,6.830067 20.0950777,14.758327 24.0673997,17.911977 z"
         id="path12008"
         sodipodi:nodetypes="cccccc" />
      <path
         style="fill:url(#linearGradient12087);fill-opacity:1;stroke:#000000;stroke-width:0.0529167;stroke-linecap:butt;stroke-linejoin:miter;stroke-dasharray:none;stroke-opacity:1"
         d="M 218.42419,165.16462 C 330.955,53.958774 23.825769,91.174976 -61.863508,173.38436 32.385569,56.992634 416.53328,33.938477 218.42419,165.16462 Z"
         id="path12079"
         sodipodi:nodetypes="ccc" />
      <path
         style="fill:#4f6054;fill-opacity:1;stroke:#000000;stroke-width:0.0529167;stroke-linecap:butt;stroke-linejoin:miter;stroke-dasharray:none;stroke-opacity:1"
         d="m -13.715213,146.48375 -0.08559,26.44774 40.528055,-0.026 -0.03072,-44.24404 c -13.586115,5.17678 -26.97344982,11.66814 -40.411743,17.82233 z"
         id="path12642"
         sodipodi:nodetypes="ccccc" />
      <path
         style="fill:#4f6054;fill-opacity:1;stroke:#000000;stroke-width:0.264583px;stroke-linecap:butt;stroke-linejoin:miter;stroke-opacity:1"
         d="m 116.90947,172.75666 -40.641718,-59.78793 -39.558991,12.0934 c 14.41905,18.44277 20.284677,38.23251 37.298126,45.62722 9.801887,4.26027 23.292885,1.52479 42.902583,2.06731 z"
         id="path12713"
         sodipodi:nodetypes="cccsc" />
      <path
         style="fill:url(#linearGradient12879);fill-opacity:1;stroke:#000000;stroke-width:0.0529167;stroke-linecap:butt;stroke-linejoin:miter;stroke-dasharray:none;stroke-opacity:1"
         d="m 214.99664,71.440256 c -0.75943,-14.559258 -2.89783,-29.012651 -20.01016,-40.48497 -13.22761,-7.803705 -28.00233,-8.988699 -42.93076,-7.981607 -19.22579,1.249376 -32.47446,7.52209 -40.06536,17.683401 -10.70338,14.572989 -9.94043,29.363422 -5.73482,43.674783 14.46149,-3.489491 29.48495,-6.296892 44.57964,-9.017871 -14.33854,-9.650916 -1.07216,-18.820044 6.79965,-18.677942 8.20632,0.01947 16.82052,2.481404 16.58412,15.82536 13.85729,-0.843686 27.76079,-1.775276 40.77769,-1.021154 z"
         id="path12715"
         sodipodi:nodetypes="ccccccccc" />
      <path
         style="fill:url(#linearGradient14183);fill-opacity:1;stroke:#000000;stroke-width:0;stroke-linecap:butt;stroke-linejoin:miter;stroke-dasharray:none;stroke-opacity:1"
         d="m 123.31746,103.32449 c 31.25466,-4.827238 67.86361,-5.760762 90.39877,1.51441 16.82051,30.1819 -3.36984,54.95526 -10.21055,58.94352 -0.24511,-47.55084 -51.72354,-43.31714 -80.18822,-60.45793 z"
         id="path14157"
         sodipodi:nodetypes="cccc" />
      <path
         style="fill:url(#linearGradient15229);fill-opacity:1;stroke:#000000;stroke-width:0;stroke-linecap:butt;stroke-linejoin:miter;stroke-dasharray:none;stroke-opacity:1"
         d="m 175.37846,122.8116 c 7.48757,11.6019 -6.08485,19.27524 -17.79238,18.02868 -11.95906,-1.27333 -10.66239,-11.77187 -29.19705,-15.193 l -26.82134,-0.24662 c 0.66089,14.72353 3.9503,25.20323 15.24356,36.77537 17.50081,17.93297 66.65926,19.27634 86.72434,1.63001 -0.0383,-14.13662 -4.6766,-31.66968 -28.15713,-40.99444 z"
         id="path15220"
         sodipodi:nodetypes="csccscc" />
    </g>
  </g>
</svg>
